<svg xmlns="http://www.w3.org/2000/svg" width="15.82" height="19" viewBox="0 0 15.82 19">
  <metadata><?xpacket begin="﻿" id="W5M0MpCehiHzreSzNTczkc9d"?>
<x:xmpmeta xmlns:x="adobe:ns:meta/" x:xmptk="Adobe XMP Core 5.6-c142 79.160924, 2017/07/13-01:06:39        ">
   <rdf:RDF xmlns:rdf="http://www.w3.org/1999/02/22-rdf-syntax-ns#">
      <rdf:Description rdf:about=""/>
   </rdf:RDF>
</x:xmpmeta>
                                                                                                    
                                                                                                    
                                                                                                    
                                                                                                    
                                                                                                    
                                                                                                    
                                                                                                    
                                                                                                    
                                                                                                    
                                                                                                    
                                                                                                    
                                                                                                    
                                                                                                    
                                                                                                    
                                                                                                    
                                                                                                    
                                                                                                    
                                                                                                    
                                                                                                    
                                                                                                    
                           
<?xpacket end="w"?></metadata>
<defs>
    <style>
      .cls-1 {
        fill: #949494;
        fill-rule: evenodd;
      }
    </style>
  </defs>
  <path id="Forma_1" data-name="Forma 1" class="cls-1" d="M1485.18,478.776h-3.05a2.658,2.658,0,0,0-5.26,0h-3.05a2.212,2.212,0,0,0-2.24,2.171v0.111a2.175,2.175,0,0,0,1.42,2.016v10.255a2.2,2.2,0,0,0,2.23,2.17h8.54a2.2,2.2,0,0,0,2.23-2.17V483.074a2.175,2.175,0,0,0,1.42-2.016v-0.111A2.212,2.212,0,0,0,1485.18,478.776Zm-5.68-1.247a1.58,1.58,0,0,1,1.56,1.247h-3.12A1.58,1.58,0,0,1,1479.5,477.529Zm5.44,15.8a1.16,1.16,0,0,1-1.17,1.141h-8.54a1.16,1.16,0,0,1-1.17-1.141v-10.1h10.88v10.1Zm1.42-12.271a1.163,1.163,0,0,1-1.18,1.141h-11.36a1.163,1.163,0,0,1-1.18-1.141v-0.111a1.163,1.163,0,0,1,1.18-1.142h11.36a1.163,1.163,0,0,1,1.18,1.142v0.111Zm-9.7,12.1a0.524,0.524,0,0,0,.53-0.514v-5.8a0.524,0.524,0,0,0-.53-0.514,0.518,0.518,0,0,0-.53.514v5.8A0.518,0.518,0,0,0,1476.66,493.153Zm2.84,0a0.524,0.524,0,0,0,.53-0.514v-5.8a0.53,0.53,0,0,0-1.06,0v5.8A0.524,0.524,0,0,0,1479.5,493.153Zm2.84,0a0.518,0.518,0,0,0,.53-0.514v-5.8a0.518,0.518,0,0,0-.53-0.514,0.524,0.524,0,0,0-.53.514v5.8A0.524,0.524,0,0,0,1482.34,493.153Z" transform="translate(-1471.59 -476.5)"/>
</svg>
