<svg xmlns="http://www.w3.org/2000/svg" width="19" height="18.969" viewBox="0 0 19 18.969">
  <metadata><?xpacket begin="﻿" id="W5M0MpCehiHzreSzNTczkc9d"?>
<x:xmpmeta xmlns:x="adobe:ns:meta/" x:xmptk="Adobe XMP Core 5.6-c142 79.160924, 2017/07/13-01:06:39        ">
   <rdf:RDF xmlns:rdf="http://www.w3.org/1999/02/22-rdf-syntax-ns#">
      <rdf:Description rdf:about=""/>
   </rdf:RDF>
</x:xmpmeta>
                                                                                                    
                                                                                                    
                                                                                                    
                                                                                                    
                                                                                                    
                                                                                                    
                                                                                                    
                                                                                                    
                                                                                                    
                                                                                                    
                                                                                                    
                                                                                                    
                                                                                                    
                                                                                                    
                                                                                                    
                                                                                                    
                                                                                                    
                                                                                                    
                                                                                                    
                                                                                                    
                           
<?xpacket end="w"?></metadata>
<defs>
    <style>
      .cls-1 {
        fill: #949494;
        fill-rule: evenodd;
      }
    </style>
  </defs>
  <path class="cls-1" d="M1452.97,479.916c-0.02-.062-0.04-0.14-0.06-0.218a3.222,3.222,0,0,0-.19-0.669,5.16,5.16,0,0,0-2.86-2.808,2.964,2.964,0,0,0-.82-0.179l-0.06-.008a1.3,1.3,0,0,0-1.12.412c-1.7,1.708-3.42,3.439-5.1,5.115l-1.23,1.225c-0.27.277-.39,0.389-0.44,0.448l-0.11.105c-0.05.05-.15,0.159-0.46,0.466a0.709,0.709,0,0,0,.01.992,0.7,0.7,0,0,0,.99-0.008c0.31-.311.41-0.42,0.46-0.47a1.077,1.077,0,0,0,.1-0.094c0.06-.058.17-0.171,0.44-0.447l1.23-1.229c1.68-1.676,3.41-3.407,5.11-5.118v0h0.01a2.186,2.186,0,0,1,.47.089,3.77,3.77,0,0,1,2.11,2.073,2.447,2.447,0,0,1,.1.393,0.448,0.448,0,0,1,.02.113,0.016,0.016,0,0,1-.01.015c-2.8,2.793-5.71,5.706-8.91,8.911a0.044,0.044,0,0,1-.04.024l-3.21.676-0.17.035,0.03-.144c0.23-1.069.46-2.174,0.7-3.259a0.7,0.7,0,0,0-.53-0.832,0.694,0.694,0,0,0-.83.533c-0.24,1.089-.47,2.2-0.7,3.271l-0.13.606a1.088,1.088,0,0,0,.29,1.008,1.058,1.058,0,0,0,.76.311,1.185,1.185,0,0,0,.25-0.027l0.63-.133c1.05-.222,2.14-0.451,3.2-0.676a1.4,1.4,0,0,0,.75-0.4c3.19-3.205,6.11-6.118,8.9-8.911a1.46,1.46,0,0,0,.44-0.945A0.636,0.636,0,0,0,1452.97,479.916Zm-3.91,6.348a0.705,0.705,0,0,0-.7.7v6.328a0.3,0.3,0,0,1-.3.307h-12.35a0.3,0.3,0,0,1-.31-0.307V480.927a0.3,0.3,0,0,1,.31-0.307h6.59a0.7,0.7,0,0,0,0-1.4h-6.59a1.706,1.706,0,0,0-1.71,1.707v12.365a1.706,1.706,0,0,0,1.71,1.707h12.35a1.7,1.7,0,0,0,1.7-1.707v-6.328A0.7,0.7,0,0,0,1449.06,486.264Z" transform="translate(-1434 -476.031)"/>
</svg>
