<svg xmlns="http://www.w3.org/2000/svg" width="19.32" height="18" viewBox="0 0 19.32 18">
  <defs>
    <style>
      .cls-1 {
        fill: #3f434b;
        fill-rule: evenodd;
      }
    </style>
  </defs>
  <path id="Forma_1" data-name="Forma 1" class="cls-1" d="M1323.28,25h15.44a1.951,1.951,0,0,1,1.92,1.929V37.536a1.951,1.951,0,0,1-1.92,1.929h-9.19l-3.11,3.431a0.338,0.338,0,0,1-.24.105,0.35,0.35,0,0,1-.12-0.022,0.323,0.323,0,0,1-.2-0.3V39.465h-2.58a1.951,1.951,0,0,1-1.92-1.929V26.927A1.951,1.951,0,0,1,1323.28,25Z" transform="translate(-1321.34 -25)"/>
</svg>
