<svg xmlns="http://www.w3.org/2000/svg" width="55" height="55" viewBox="0 0 55 55">
  <metadata><?xpacket begin="﻿" id="W5M0MpCehiHzreSzNTczkc9d"?>
<x:xmpmeta xmlns:x="adobe:ns:meta/" x:xmptk="Adobe XMP Core 5.6-c142 79.160924, 2017/07/13-01:06:39        ">
   <rdf:RDF xmlns:rdf="http://www.w3.org/1999/02/22-rdf-syntax-ns#">
      <rdf:Description rdf:about=""/>
   </rdf:RDF>
</x:xmpmeta>
                                                                                                    
                                                                                                    
                                                                                                    
                                                                                                    
                                                                                                    
                                                                                                    
                                                                                                    
                                                                                                    
                                                                                                    
                                                                                                    
                                                                                                    
                                                                                                    
                                                                                                    
                                                                                                    
                                                                                                    
                                                                                                    
                                                                                                    
                                                                                                    
                                                                                                    
                                                                                                    
                           
<?xpacket end="w"?></metadata>
<defs>
    <style>
      .cls-1 {
        fill: #fff;
        fill-rule: evenodd;
      }
    </style>
  </defs>
  <path id="Forma_1" data-name="Forma 1" class="cls-1" d="M623,432.5a27.5,27.5,0,1,0-46.074,20.258l-0.026.023,0.892,0.752c0.058,0.049.121,0.089,0.179,0.137,0.474,0.393.965,0.766,1.465,1.127,0.162,0.117.324,0.234,0.489,0.348q0.8,0.552,1.642,1.048c0.122,0.072.245,0.142,0.368,0.212,0.613,0.349,1.239.678,1.88,0.98l0.142,0.064a27.252,27.252,0,0,0,6.651,2.1l0.184,0.033c0.724,0.125,1.456.225,2.2,0.292,0.09,0.008.18,0.013,0.271,0.021,0.738,0.061,1.484.1,2.24,0.1s1.488-.039,2.222-0.1c0.093-.008.186-0.013,0.279-0.021q1.1-.1,2.178-0.287l0.187-.034a27.251,27.251,0,0,0,6.557-2.055c0.076-.035.153-0.068,0.229-0.1q0.925-.435,1.811-0.936,0.221-.124.439-0.253c0.538-.317,1.067-0.648,1.581-1,0.185-.126.366-0.259,0.549-0.391,0.439-.316.87-0.642,1.289-0.983,0.093-.075.193-0.14,0.284-0.217l0.915-.764-0.027-.023A27.429,27.429,0,0,0,623,432.5Zm-53,0a25.5,25.5,0,1,1,42.411,19.063,7.494,7.494,0,0,0-.893-0.537l-8.467-4.233a2.217,2.217,0,0,1-1.232-1.993v-2.957c0.2-.242.4-0.516,0.617-0.817a20.378,20.378,0,0,0,2.616-5.123,3.629,3.629,0,0,0,2.085-3.289v-3.545a3.638,3.638,0,0,0-.887-2.369v-4.667a8.066,8.066,0,0,0-1.883-5.864c-1.843-2.1-4.826-3.169-8.867-3.169s-7.024,1.065-8.867,3.168a8.066,8.066,0,0,0-1.883,5.864V426.7a3.644,3.644,0,0,0-.887,2.369v3.545a3.638,3.638,0,0,0,1.34,2.821,18.79,18.79,0,0,0,3.093,6.389v2.894a2.231,2.231,0,0,1-1.162,1.958l-7.907,4.313a7.227,7.227,0,0,0-.752.476A25.439,25.439,0,0,1,570,432.5Zm40.459,20.632q-0.525.381-1.067,0.735c-0.166.108-.331,0.216-0.5,0.321-0.472.292-.952,0.57-1.442,0.83-0.108.057-.217,0.111-0.326,0.167a25.481,25.481,0,0,1-3.488,1.476l-0.127.043q-0.941.312-1.9,0.552H601.6c-0.648.16-1.3,0.293-1.964,0.4l-0.054.01c-0.621.1-1.247,0.174-1.875,0.229-0.111.01-.222,0.017-0.334,0.025-0.621.047-1.245,0.077-1.872,0.077s-1.266-.031-1.895-0.078c-0.109-.008-0.218-0.015-0.326-0.025-0.634-.056-1.265-0.131-1.89-0.233l-0.084-.015a25.4,25.4,0,0,1-3.89-.971l-0.118-.04q-0.944-.321-1.862-0.713l-0.013-.006c-0.578-.249-1.145-0.525-1.705-0.816-0.073-.038-0.147-0.074-0.219-0.113-0.511-.273-1.011-0.568-1.5-0.876q-0.219-.138-0.435-0.279c-0.454-.3-0.9-0.606-1.338-0.933-0.045-.034-0.088-0.07-0.133-0.1l0.1-.054,7.907-4.313a4.229,4.229,0,0,0,2.205-3.714v-3.6l-0.23-.278a16.7,16.7,0,0,1-3-6.216l-0.091-.4L586.632,434a1.657,1.657,0,0,1-.769-1.392v-3.545a1.633,1.633,0,0,1,.557-1.223l0.33-.3v-5.57l-0.009-.131a6.023,6.023,0,0,1,1.4-4.36c1.446-1.648,3.924-2.485,7.363-2.485s5.9,0.83,7.346,2.466a6.123,6.123,0,0,1,1.413,4.381l-0.009,5.7,0.33,0.3a1.635,1.635,0,0,1,.557,1.223v3.545a1.67,1.67,0,0,1-1.181,1.575l-0.5.153-0.16.5a18.5,18.5,0,0,1-2.5,5.032c-0.262.37-.517,0.7-0.736,0.949l-0.248.283v3.7a4.2,4.2,0,0,0,2.338,3.782l8.467,4.233c0.054,0.027.107,0.055,0.16,0.083C610.677,452.979,610.567,453.054,610.459,453.132Z" transform="translate(-568 -405)"/>
</svg>
